<svg width="1028" height="265" viewBox="0 0 1028 265" fill="none" xmlns="http://www.w3.org/2000/svg">
<path d="M398.309 218.05V264.84H180.619C187.733 259.692 194.422 253.981 200.619 247.76C203.879 244.49 206.959 241.04 209.839 237.58C215.088 231.441 219.862 224.913 224.119 218.05H398.309ZM246.359 110.19C248.612 125.708 248.612 141.471 246.359 156.99H351.529V110.19H246.359ZM180.799 2.34961C198.253 14.91 213.037 30.8149 224.289 49.1396H398.289V2.34961H180.799Z" fill="url(#paint0_linear_2207_54708)"/>
<path d="M246.339 157L351.529 110.2V157H246.339ZM398.339 264.85V218.05L180.619 264.84L398.339 264.85ZM398.339 49.1496V2.34961L224.339 49.1396L398.339 49.1496Z" fill="url(#paint1_linear_2207_54708)"/>
<path d="M86.52 2.34961H0V51.3496H82.32C93.1181 51.3483 103.811 53.474 113.787 57.6054C123.764 61.7367 132.829 67.7928 140.465 75.4278C148.101 83.0627 154.158 92.127 158.29 102.103C162.423 112.079 164.55 122.771 164.55 133.57C164.615 152.996 157.71 171.801 145.09 186.57C143.63 188.33 142.09 190.09 140.4 191.76C132.799 199.428 123.751 205.512 113.781 209.657C103.811 213.803 93.1175 215.928 82.32 215.91H0V264.91H86.52C103.743 264.939 120.801 261.548 136.703 254.934C152.606 248.319 167.037 238.614 179.16 226.38C181.81 223.73 184.31 220.92 186.65 218.12C206.753 194.549 217.75 164.559 217.65 133.58C217.659 116.352 214.274 99.2915 207.689 83.3723C201.104 67.4531 191.447 52.9872 179.269 40.8008C167.092 28.6145 152.634 18.9464 136.72 12.3489C120.806 5.75133 103.748 2.35355 86.52 2.34961V2.34961Z" fill="url(#paint2_linear_2207_54708)"/>
<path d="M175.59 37.2402C188.765 65.1005 191.564 96.7483 183.483 126.488C175.402 156.229 156.972 182.108 131.51 199.47C117.335 210.144 100.064 215.901 82.32 215.87H0V264.87H86.52C103.743 264.899 120.801 261.508 136.703 254.894C152.606 248.28 167.037 238.574 179.16 226.34C181.81 223.69 184.31 220.88 186.65 218.08C206.753 194.51 217.75 164.519 217.65 133.54C217.683 115.452 213.962 97.5541 206.722 80.9781C199.482 64.4021 188.881 49.5088 175.59 37.2402Z" fill="url(#paint3_linear_2207_54708)"/>
<path d="M594.131 114.68V2.37988H665.001V19.7199H614.181V47.4299H659.381V64.4299H614.181V97.3399H665.001V114.68H594.131Z" fill="black"/>
<path d="M834.459 115.661C826.926 115.661 820.453 114.567 815.039 112.381C809.911 110.389 805.309 107.245 801.589 103.191C797.996 99.1702 795.312 94.4224 793.719 89.2706C791.966 83.5708 791.106 77.6338 791.169 71.6706V2.39062H811.379V69.7506C811.292 74.1031 811.855 78.4442 813.049 82.6306C813.975 85.8561 815.608 88.8349 817.829 91.3506C819.843 93.5686 822.351 95.2814 825.149 96.3506C828.184 97.449 831.392 97.9877 834.619 97.9406C837.872 97.9832 841.106 97.4447 844.169 96.3506C846.999 95.298 849.537 93.5836 851.569 91.3506C853.79 88.8349 855.423 85.8561 856.349 82.6306C857.537 78.4432 858.093 74.1021 857.999 69.7506V2.39062H878.209V71.6706C878.276 77.6392 877.391 83.5802 875.589 89.2706C873.925 94.419 871.2 99.161 867.589 103.191C863.834 107.267 859.181 110.413 853.999 112.381C847.75 114.693 841.121 115.805 834.459 115.661V115.661Z" fill="black"/>
<path d="M955.419 18.6002C944.086 18.6002 935.419 22.1168 929.419 29.1502C923.419 36.1835 920.419 45.9368 920.419 58.4102C920.359 63.9048 921.083 69.38 922.569 74.6702C923.832 79.2538 925.994 83.5404 928.929 87.2802C931.755 90.7753 935.353 93.5684 939.439 95.4402C944.07 97.4909 949.096 98.4947 954.159 98.3802C957.187 98.4037 960.215 98.2702 963.229 97.9802C965.253 97.8126 967.26 97.4781 969.229 96.9802V57.4602H989.289V110.27C984.72 111.794 980.039 112.961 975.289 113.76C967.779 115.109 960.159 115.745 952.529 115.66C945.087 115.755 937.691 114.466 930.719 111.86C924.386 109.456 918.673 105.663 913.999 100.76C909.208 95.6013 905.55 89.4972 903.259 82.8402C900.587 74.978 899.294 66.7128 899.439 58.4102C899.271 50.082 900.69 41.7979 903.619 34.0002C906.195 27.2743 910.122 21.1481 915.159 16.0002C920.022 11.0822 925.884 7.26617 932.349 4.81016C939.052 2.24668 946.173 0.954625 953.349 1.00016C957.919 0.944178 962.486 1.27873 966.999 2.00016C970.463 2.5754 973.891 3.34325 977.269 4.30016C979.692 4.9888 982.048 5.89239 984.309 7.00016C986.169 8.00016 987.469 8.64016 988.209 9.06016L982.159 25.3902C978.438 23.2667 974.454 21.6427 970.309 20.5602C965.458 19.2307 960.449 18.5712 955.419 18.6002V18.6002Z" fill="black"/>
<path d="M474.9 114.68H509.55V97.3396H494.95V19.7196H509.55V2.34961H474.9V114.68Z" fill="black"/>
<path d="M569.15 49.5499C566.36 49.5499 565.35 48.6499 564.84 47.9799C563.773 46.5652 563.216 44.8312 563.26 43.0599V27.0599C563.301 23.6948 562.935 20.3371 562.17 17.0599C561.419 13.9423 559.84 11.0852 557.6 8.78992C555.124 6.39881 552.066 4.69594 548.73 3.84992C544.508 2.76993 540.157 2.2753 535.8 2.37992H532V19.7199H535.81C537.348 19.694 538.885 19.8145 540.4 20.0799C541.026 20.1728 541.619 20.4165 542.13 20.7899C542.507 21.139 542.78 21.5854 542.92 22.0799C543.239 23.2487 543.377 24.4594 543.33 25.6699V41.8699C543.191 45.8916 543.871 49.8995 545.33 53.6499C546.117 55.4511 547.209 57.1022 548.56 58.5299C547.214 59.9363 546.124 61.5676 545.34 63.3499C543.99 66.4199 543.34 70.2899 543.34 75.1899V91.2799C543.379 92.5349 543.231 93.7887 542.9 94.9999C542.765 95.5027 542.495 95.9591 542.12 96.3199C541.614 96.6923 541.023 96.9328 540.4 97.0199C538.882 97.2853 537.341 97.4058 535.8 97.3799H532V114.72H536.58C540.815 114.83 545.044 114.318 549.13 113.2C552.399 112.32 555.379 110.596 557.77 108.2C559.939 105.873 561.46 103.018 562.18 99.9199C562.944 96.6629 563.31 93.3252 563.27 89.9799V73.9999C563.22 72.2031 563.777 70.4417 564.85 68.9999C565.36 68.3199 566.37 67.4199 569.16 67.4199H573V49.5499H569.15Z" fill="black"/>
<path d="M766.34 64.4504C763.16 60.0237 758.227 56.6737 751.54 54.4004C755.767 52.3537 759.376 49.2243 762 45.3304C764.578 41.2653 765.881 36.5219 765.74 31.7104C765.74 25.9904 764.574 21.1837 762.24 17.2904C759.804 13.4529 756.562 10.1909 752.74 7.73039C746.38 3.30039 738.28 2.58039 735.42 2.40039H734.78H687.4V114.7H738.13H738.88C749.52 113.97 755.09 111.05 759.88 107.25C767.72 101.04 771.11 92.9004 771.11 81.3404C771.117 74.5004 769.527 68.8704 766.34 64.4504ZM707.13 18.5904C708.83 18.3704 710.874 18.2071 713.26 18.1004C715.647 17.9937 718.38 17.9404 721.46 17.9404C728.667 17.9404 734.527 19.0737 739.04 21.3404C743.554 23.6071 745.81 27.4437 745.81 32.8504C745.81 38.5771 743.634 42.5471 739.28 44.7604C734.927 46.9737 728.927 48.0804 721.28 48.0804H707.13V18.5904ZM748.28 89.8904C746.701 92.1949 744.565 94.0628 742.07 95.3204C739.169 96.7621 736.051 97.7182 732.84 98.1504C729.021 98.7277 725.163 99.0118 721.3 99.0004C719.17 99.0004 716.84 99.0004 714.3 98.8404C711.76 98.6804 709.37 98.5704 707.14 98.3504V64.1204H724.8C732.86 64.1204 739.174 65.3637 743.74 67.8504C748.307 70.3371 750.587 74.7671 750.58 81.1404C750.71 84.2218 749.908 87.2708 748.28 89.8904V89.8904Z" fill="black"/>
<path d="M663.06 227.89V154.89H682.88V264.84H665.88L611.48 186.17V264.84H591.85V154.93H611.3L663.06 227.89ZM785.81 154.89V172.18H752V264.8H731.89V172.22H698.11V154.93L785.81 154.89ZM801.04 154.89H821.04V264.84H801L801.04 154.89ZM923.95 154.89V172.18H890.17V264.8H870V172.22H836.24V154.93L923.95 154.89ZM989.76 221.66V264.8H969.76V222L932.76 154.91H954.02L980.19 203.6L1006.51 154.91H1027.78L989.76 221.66ZM474.9 264.79H509.55V247.79H494.88V171.79H509.55V154.79H474.9V264.79ZM563.26 154.9H532V171.9H563.27L563.26 154.9ZM563.26 201.37H532V218.37H563.27L563.26 201.37ZM563.26 247.84H532V264.84H563.27L563.26 247.84Z" fill="url(#paint4_linear_2207_54708)"/>
<defs>
<linearGradient id="paint0_linear_2207_54708" x1="203.959" y1="146.22" x2="481.739" y2="105.24" gradientUnits="userSpaceOnUse">
<stop stop-color="#3C5CFE"/>
<stop offset="0.41" stop-color="#9134CF"/>
<stop offset="0.82" stop-color="#E00FA3"/>
<stop offset="1" stop-color="#FF0092"/>
</linearGradient>
<linearGradient id="paint1_linear_2207_54708" x1="180.619" y1="133.59" x2="762.609" y2="133.59" gradientUnits="userSpaceOnUse">
<stop stop-color="#0014FF"/>
<stop offset="0.07" stop-color="#1412F6"/>
<stop offset="0.54" stop-color="#9109C1"/>
<stop offset="0.86" stop-color="#E0029F"/>
<stop offset="1" stop-color="#FF0092"/>
</linearGradient>
<linearGradient id="paint2_linear_2207_54708" x1="198.68" y1="273.96" x2="-73.22" y2="-28.4904" gradientUnits="userSpaceOnUse">
<stop offset="0.32" stop-color="#0014FF"/>
<stop offset="0.46" stop-color="#3D0FE5"/>
<stop offset="0.66" stop-color="#8F09C2"/>
<stop offset="0.82" stop-color="#CC04A8"/>
<stop offset="0.94" stop-color="#F10198"/>
<stop offset="1" stop-color="#FF0092"/>
</linearGradient>
<linearGradient id="paint3_linear_2207_54708" x1="196.57" y1="116.74" x2="25.96" y2="254.8" gradientUnits="userSpaceOnUse">
<stop offset="0.03" stop-color="#3C5CFE"/>
<stop offset="0.49" stop-color="#4949FD"/>
<stop offset="1" stop-color="#3535FD"/>
</linearGradient>
<linearGradient id="paint4_linear_2207_54708" x1="474.9" y1="227.67" x2="1053.67" y2="227.67" gradientUnits="userSpaceOnUse">
<stop stop-color="#F90295"/>
<stop offset="0.69" stop-color="#3C5CFE"/>
</linearGradient>
</defs>
</svg>
