<svg width="1028" height="264" viewBox="0 0 1028 264" fill="none" xmlns="http://www.w3.org/2000/svg">
<path d="M398.309 217.055V263.845H180.619C187.733 258.698 194.422 252.986 200.619 246.765C203.879 243.495 206.959 240.045 209.839 236.585C215.088 230.447 219.862 223.918 224.119 217.055H398.309ZM246.359 109.195C248.612 124.714 248.612 140.477 246.359 155.995H351.529V109.195H246.359ZM180.799 1.35547C198.253 13.9159 213.037 29.8208 224.289 48.1455H398.289V1.35547H180.799Z" fill="url(#paint0_linear_2218_54709)"/>
<path d="M246.339 156.005L351.529 109.205V156.005H246.339ZM398.339 263.855V217.055L180.619 263.845L398.339 263.855ZM398.339 48.1555V1.35547L224.339 48.1455L398.339 48.1555Z" fill="url(#paint1_linear_2218_54709)"/>
<path d="M86.52 1.35547H0V50.3555H82.32C93.1181 50.3542 103.811 52.4799 113.787 56.6112C123.764 60.7426 132.829 66.7987 140.465 74.4336C148.101 82.0686 154.158 91.1329 158.29 101.109C162.423 111.085 164.55 121.777 164.55 132.575C164.615 152.002 157.71 170.807 145.09 185.575C143.63 187.335 142.09 189.095 140.4 190.765C132.799 198.434 123.751 204.518 113.781 208.663C103.811 212.809 93.1175 214.934 82.32 214.915H0V263.915H86.52C103.743 263.944 120.801 260.553 136.703 253.939C152.606 247.325 167.037 237.62 179.16 225.385C181.81 222.735 184.31 219.925 186.65 217.125C206.753 193.555 217.75 163.564 217.65 132.585C217.659 115.358 214.274 98.2973 207.689 82.3781C201.104 66.459 191.447 51.9931 179.269 39.8067C167.092 27.6203 152.634 17.9523 136.72 11.3547C120.806 4.75719 103.748 1.35941 86.52 1.35547V1.35547Z" fill="url(#paint2_linear_2218_54709)"/>
<path d="M175.59 36.2461C188.765 64.1064 191.564 95.7542 183.483 125.494C175.402 155.234 156.972 181.114 131.51 198.476C117.335 209.149 100.064 214.907 82.32 214.876H0V263.876H86.52C103.743 263.905 120.801 260.514 136.703 253.9C152.606 247.286 167.037 237.58 179.16 225.346C181.81 222.696 184.31 219.886 186.65 217.086C206.753 193.516 217.75 163.525 217.65 132.546C217.683 114.458 213.962 96.56 206.722 79.9839C199.482 63.4079 188.881 48.5146 175.59 36.2461Z" fill="url(#paint3_linear_2218_54709)"/>
<path d="M594.131 113.686V1.38574H665.001V18.7257H614.181V46.4357H659.381V63.4357H614.181V96.3457H665.001V113.686H594.131Z" fill="white"/>
<path d="M834.459 114.666C826.926 114.666 820.453 113.573 815.039 111.386C809.911 109.395 805.309 106.251 801.589 102.196C797.996 98.1761 795.312 93.4282 793.719 88.2765C791.966 82.5767 791.106 76.6396 791.169 70.6765V1.39648H811.379V68.7565C811.292 73.109 811.855 77.4501 813.049 81.6365C813.975 84.862 815.608 87.8408 817.829 90.3565C819.843 92.5744 822.351 94.2873 825.149 95.3565C828.184 96.4549 831.392 96.9936 834.619 96.9465C837.872 96.989 841.106 96.4506 844.169 95.3565C846.999 94.3039 849.537 92.5895 851.569 90.3565C853.79 87.8408 855.423 84.862 856.349 81.6365C857.537 77.4491 858.093 73.108 857.999 68.7565V1.39648H878.209V70.6765C878.276 76.645 877.391 82.5861 875.589 88.2765C873.925 93.4248 871.2 98.1669 867.589 102.196C863.834 106.273 859.181 109.419 853.999 111.386C847.75 113.698 841.121 114.811 834.459 114.666V114.666Z" fill="white"/>
<path d="M955.419 17.606C944.086 17.606 935.419 21.1227 929.419 28.156C923.419 35.1894 920.419 44.9427 920.419 57.416C920.359 62.9107 921.083 68.3859 922.569 73.676C923.832 78.2597 925.994 82.5463 928.929 86.286C931.755 89.7812 935.353 92.5742 939.439 94.446C944.07 96.4967 949.096 97.5006 954.159 97.386C957.187 97.4096 960.215 97.2761 963.229 96.986C965.253 96.8184 967.26 96.484 969.229 95.986V56.466H989.289V109.276C984.72 110.8 980.039 111.967 975.289 112.766C967.779 114.115 960.159 114.751 952.529 114.666C945.087 114.761 937.691 113.472 930.719 110.866C924.386 108.462 918.673 104.669 913.999 99.766C909.208 94.6071 905.55 88.503 903.259 81.846C900.587 73.9839 899.294 65.7187 899.439 57.416C899.271 49.0878 900.69 40.8038 903.619 33.006C906.195 26.2801 910.122 20.1539 915.159 15.006C920.022 10.0881 925.884 6.27203 932.349 3.81602C939.052 1.25254 946.173 -0.0395157 953.349 0.00602012C957.919 -0.0499623 962.486 0.284587 966.999 1.00602C970.463 1.58126 973.891 2.34911 977.269 3.30602C979.692 3.99466 982.048 4.89825 984.309 6.00602C986.169 7.00602 987.469 7.64602 988.209 8.06602L982.159 24.396C978.438 22.2725 974.454 20.6486 970.309 19.566C965.458 18.2365 960.449 17.5771 955.419 17.606V17.606Z" fill="white"/>
<path d="M474.9 113.685H509.55V96.3455H494.95V18.7255H509.55V1.35547H474.9V113.685Z" fill="white"/>
<path d="M569.15 48.5558C566.36 48.5558 565.35 47.6558 564.84 46.9858C563.773 45.5711 563.216 43.8371 563.26 42.0658V26.0658C563.301 22.7007 562.935 19.343 562.17 16.0658C561.419 12.9481 559.84 10.091 557.6 7.79578C555.124 5.40467 552.066 3.7018 548.73 2.85578C544.508 1.77578 540.157 1.28116 535.8 1.38578H532V18.7258H535.81C537.348 18.6998 538.885 18.8204 540.4 19.0858C541.026 19.1786 541.619 19.4223 542.13 19.7958C542.507 20.1448 542.78 20.5912 542.92 21.0858C543.239 22.2546 543.377 23.4652 543.33 24.6758V40.8758C543.191 44.8974 543.871 48.9054 545.33 52.6558C546.117 54.4569 547.209 56.1081 548.56 57.5358C547.214 58.9422 546.124 60.5735 545.34 62.3558C543.99 65.4258 543.34 69.2958 543.34 74.1958V90.2858C543.379 91.5408 543.231 92.7946 542.9 94.0058C542.765 94.5086 542.495 94.965 542.12 95.3258C541.614 95.6981 541.023 95.9387 540.4 96.0258C538.882 96.2912 537.341 96.4117 535.8 96.3858H532V113.726H536.58C540.815 113.836 545.044 113.324 549.13 112.206C552.399 111.326 555.379 109.602 557.77 107.206C559.939 104.879 561.46 102.024 562.18 98.9258C562.944 95.6688 563.31 92.331 563.27 88.9858V73.0058C563.22 71.2089 563.777 69.4476 564.85 68.0058C565.36 67.3258 566.37 66.4258 569.16 66.4258H573V48.5558H569.15Z" fill="white"/>
<path d="M766.34 63.4562C763.16 59.0296 758.227 55.6796 751.54 53.4062C755.767 51.3596 759.376 48.2302 762 44.3363C764.578 40.2711 765.881 35.5277 765.74 30.7162C765.74 24.9962 764.574 20.1896 762.24 16.2963C759.804 12.4587 756.562 9.19675 752.74 6.73625C746.38 2.30625 738.28 1.58625 735.42 1.40625H734.78H687.4V113.706H738.13H738.88C749.52 112.976 755.09 110.056 759.88 106.256C767.72 100.046 771.11 91.9062 771.11 80.3462C771.117 73.5062 769.527 67.8762 766.34 63.4562ZM707.13 17.5963C708.83 17.3763 710.874 17.2129 713.26 17.1063C715.647 16.9996 718.38 16.9463 721.46 16.9463C728.667 16.9463 734.527 18.0796 739.04 20.3463C743.554 22.6129 745.81 26.4496 745.81 31.8563C745.81 37.5829 743.634 41.5529 739.28 43.7662C734.927 45.9796 728.927 47.0863 721.28 47.0863H707.13V17.5963ZM748.28 88.8962C746.701 91.2008 744.565 93.0687 742.07 94.3262C739.169 95.768 736.051 96.724 732.84 97.1562C729.021 97.7335 725.163 98.0177 721.3 98.0062C719.17 98.0062 716.84 98.0062 714.3 97.8462C711.76 97.6862 709.37 97.5762 707.14 97.3562V63.1262H724.8C732.86 63.1262 739.174 64.3696 743.74 66.8562C748.307 69.3429 750.587 73.7729 750.58 80.1462C750.71 83.2277 749.908 86.2766 748.28 88.8962V88.8962Z" fill="white"/>
<path d="M663.06 226.896V153.896H682.88V263.846H665.88L611.48 185.176V263.846H591.85V153.936H611.3L663.06 226.896ZM785.81 153.896V171.186H752V263.806H731.89V171.226H698.11V153.936L785.81 153.896ZM801.04 153.896H821.04V263.846H801L801.04 153.896ZM923.95 153.896V171.186H890.17V263.806H870V171.226H836.24V153.936L923.95 153.896ZM989.76 220.666V263.806H969.76V221.006L932.76 153.916H954.02L980.19 202.606L1006.51 153.916H1027.78L989.76 220.666ZM474.9 263.796H509.55V246.796H494.88V170.796H509.55V153.796H474.9V263.796ZM563.26 153.906H532V170.906H563.27L563.26 153.906ZM563.26 200.376H532V217.376H563.27L563.26 200.376ZM563.26 246.846H532V263.846H563.27L563.26 246.846Z" fill="url(#paint4_linear_2218_54709)"/>
<defs>
<linearGradient id="paint0_linear_2218_54709" x1="203.959" y1="145.225" x2="481.739" y2="104.245" gradientUnits="userSpaceOnUse">
<stop stop-color="#3C5CFE"/>
<stop offset="0.41" stop-color="#9134CF"/>
<stop offset="0.82" stop-color="#E00FA3"/>
<stop offset="1" stop-color="#FF0092"/>
</linearGradient>
<linearGradient id="paint1_linear_2218_54709" x1="180.619" y1="132.595" x2="762.609" y2="132.595" gradientUnits="userSpaceOnUse">
<stop stop-color="#0014FF"/>
<stop offset="0.07" stop-color="#1412F6"/>
<stop offset="0.54" stop-color="#9109C1"/>
<stop offset="0.86" stop-color="#E0029F"/>
<stop offset="1" stop-color="#FF0092"/>
</linearGradient>
<linearGradient id="paint2_linear_2218_54709" x1="198.68" y1="272.965" x2="-73.22" y2="-29.4845" gradientUnits="userSpaceOnUse">
<stop offset="0.32" stop-color="#0014FF"/>
<stop offset="0.46" stop-color="#3D0FE5"/>
<stop offset="0.66" stop-color="#8F09C2"/>
<stop offset="0.82" stop-color="#CC04A8"/>
<stop offset="0.94" stop-color="#F10198"/>
<stop offset="1" stop-color="#FF0092"/>
</linearGradient>
<linearGradient id="paint3_linear_2218_54709" x1="196.57" y1="115.746" x2="25.96" y2="253.806" gradientUnits="userSpaceOnUse">
<stop offset="0.03" stop-color="#3C5CFE"/>
<stop offset="0.49" stop-color="#4949FD"/>
<stop offset="1" stop-color="#3535FD"/>
</linearGradient>
<linearGradient id="paint4_linear_2218_54709" x1="474.9" y1="226.676" x2="1053.67" y2="226.676" gradientUnits="userSpaceOnUse">
<stop stop-color="#F90295"/>
<stop offset="0.69" stop-color="#3C5CFE"/>
</linearGradient>
</defs>
</svg>
