<svg width="399" height="263" viewBox="0 0 399 263" fill="none" xmlns="http://www.w3.org/2000/svg">
<g clip-path="url(#clip0_39_27)">
<path d="M398.309 215.7V262.49H180.619C187.736 257.349 194.424 251.641 200.619 245.42C203.879 242.15 206.959 238.69 209.839 235.24C215.09 229.1 219.864 222.568 224.119 215.7H398.309ZM246.359 107.85C248.612 123.365 248.612 139.125 246.359 154.64H351.529V107.85H246.359ZM180.799 0C198.249 12.5656 213.031 28.4695 224.289 46.79H398.289V0H180.799Z" fill="url(#paint0_linear_39_27)"/>
<path d="M246.339 154.64L351.529 107.85V154.64H246.339ZM398.339 262.49V215.7L180.619 262.49H398.339ZM398.339 46.79V0L224.339 46.79H398.339Z" fill="url(#paint1_linear_39_27)"/>
<path d="M86.52 0H0V49H82.32C93.119 48.9987 103.812 51.1247 113.79 55.2567C123.767 59.3887 132.832 65.4457 140.468 73.0817C148.104 80.7177 154.161 89.7832 158.293 99.7604C162.425 109.738 164.551 120.431 164.55 131.23C164.613 150.656 157.708 169.46 145.09 184.23C143.63 185.99 142.09 187.75 140.4 189.41C132.8 197.08 123.753 203.165 113.782 207.311C103.812 211.457 93.1178 213.581 82.32 213.56H0V262.56H86.52C103.745 262.586 120.804 259.19 136.707 252.571C152.61 245.952 167.04 236.24 179.16 224C181.81 221.35 184.31 218.54 186.65 215.73C206.755 192.164 217.752 162.176 217.65 131.2C217.655 113.975 214.268 96.9176 207.68 81.0019C201.093 65.0862 191.436 50.6238 179.259 38.4406C167.082 26.2574 152.625 16.5921 136.713 9.9964C120.801 3.40072 103.745 0.00393905 86.52 0V0Z" fill="url(#paint2_linear_39_27)"/>
<path d="M175.59 34.8896C188.765 62.7499 191.564 94.3977 183.483 124.138C175.402 153.878 156.972 179.758 131.51 197.12C117.337 207.797 100.065 213.555 82.32 213.52H0V262.52H86.52C103.743 262.55 120.8 259.161 136.703 252.549C152.605 245.937 167.037 236.233 179.16 224C181.81 221.35 184.31 218.54 186.65 215.73C206.755 192.164 217.752 162.176 217.65 131.2C217.682 113.11 213.96 95.2111 206.721 78.6336C199.481 62.056 188.881 47.1609 175.59 34.8896Z" fill="url(#paint3_linear_39_27)"/>
</g>
<defs>
<linearGradient id="paint0_linear_39_27" x1="203.959" y1="143.87" x2="481.739" y2="102.89" gradientUnits="userSpaceOnUse">
<stop stop-color="#3C5CFE"/>
<stop offset="0.41" stop-color="#9134CF"/>
<stop offset="0.82" stop-color="#E00FA3"/>
<stop offset="1" stop-color="#FF0092"/>
</linearGradient>
<linearGradient id="paint1_linear_39_27" x1="180.619" y1="131.25" x2="762.609" y2="131.25" gradientUnits="userSpaceOnUse">
<stop stop-color="#0014FF"/>
<stop offset="0.07" stop-color="#1412F6"/>
<stop offset="0.54" stop-color="#9109C1"/>
<stop offset="0.86" stop-color="#E0029F"/>
<stop offset="1" stop-color="#FF0092"/>
</linearGradient>
<linearGradient id="paint2_linear_39_27" x1="198.68" y1="271.62" x2="-73.22" y2="-30.83" gradientUnits="userSpaceOnUse">
<stop offset="0.32" stop-color="#0014FF"/>
<stop offset="0.46" stop-color="#3D0FE5"/>
<stop offset="0.66" stop-color="#8F09C2"/>
<stop offset="0.82" stop-color="#CC04A8"/>
<stop offset="0.94" stop-color="#F10198"/>
<stop offset="1" stop-color="#FF0092"/>
</linearGradient>
<linearGradient id="paint3_linear_39_27" x1="196.57" y1="114.39" x2="25.96" y2="252.45" gradientUnits="userSpaceOnUse">
<stop offset="0.03" stop-color="#3C5CFE"/>
<stop offset="0.49" stop-color="#4949FD"/>
<stop offset="1" stop-color="#3535FD"/>
</linearGradient>
<clipPath id="clip0_39_27">
<rect width="398.31" height="262.49" fill="white"/>
</clipPath>
</defs>
</svg>
